<?xml version="1.0" encoding="UTF-8" standalone="no"?>
<!-- Created with Inkscape (http://www.inkscape.org/) -->

<svg
   xmlns:dc="http://purl.org/dc/elements/1.1/"
   xmlns:cc="http://creativecommons.org/ns#"
   xmlns:rdf="http://www.w3.org/1999/02/22-rdf-syntax-ns#"
   xmlns:svg="http://www.w3.org/2000/svg"
   xmlns="http://www.w3.org/2000/svg"
   xmlns:sodipodi="http://sodipodi.sourceforge.net/DTD/sodipodi-0.dtd"
   xmlns:inkscape="http://www.inkscape.org/namespaces/inkscape"
   width="210mm"
   height="297mm"
   id="svg2"
   version="1.1"
   inkscape:version="0.48.3.1 r9886"
   sodipodi:docname="Novo documento 1">
  <defs
     id="defs4" />
  <sodipodi:namedview
     id="base"
     pagecolor="#ffffff"
     bordercolor="#666666"
     borderopacity="1.0"
     inkscape:pageopacity="0.0"
     inkscape:pageshadow="2"
     inkscape:zoom="0.35"
     inkscape:cx="532.66316"
     inkscape:cy="-37.891475"
     inkscape:document-units="px"
     inkscape:current-layer="layer1"
     showgrid="false"
     showguides="true"
     inkscape:guide-bbox="true"
     inkscape:window-width="1920"
     inkscape:window-height="1013"
     inkscape:window-x="-2"
     inkscape:window-y="-3"
     inkscape:window-maximized="1">
    <sodipodi:guide
       orientation="0,1"
       position="691.42857,440"
       id="guide3079" />
    <sodipodi:guide
       orientation="0,1"
       position="349.51278,610.63721"
       id="guide3081" />
    <sodipodi:guide
       orientation="1,0"
       position="-88.893424,250.51783"
       id="guide3099" />
    <sodipodi:guide
       orientation="1,0"
       position="1733.4218,-152.53303"
       id="guide3101" />
  </sodipodi:namedview>
  <metadata
     id="metadata7">
    <rdf:RDF>
      <cc:Work
         rdf:about="">
        <dc:format>image/svg+xml</dc:format>
        <dc:type
           rdf:resource="http://purl.org/dc/dcmitype/StillImage" />
        <dc:title></dc:title>
      </cc:Work>
    </rdf:RDF>
  </metadata>
  <g
     inkscape:label="Camada 1"
     inkscape:groupmode="layer"
     id="layer1">
    <g
       id="g3091"
       inkscape:export-filename="/home/joaocarlos/academic/uefs/TEC495-TCC/workspace/documentacao/modelos/template_ipPROCESS_LaTeX/figuras/header.png"
       inkscape:export-xdpi="89.954391"
       inkscape:export-ydpi="89.954391">
      <path
         inkscape:connector-curvature="0"
         id="path3038"
         d="m 374.89704,608.50384 c 0.19605,-65.8393 0.23644,-67.12419 2.38015,-75.74881 1.21299,-4.87996 1.22822,-4.91986 3.9952,-10.47412 5.20858,-10.45533 11.69248,-17.85651 21.88337,-24.97925 2.77357,-1.93857 13.14196,-7.06404 15.7894,-7.80532 9.89463,-2.77047 19.0577,-3.60263 27.30667,-2.47993 4.85716,0.66108 17.54501,4.45117 20.1329,6.0141 0.82393,0.49763 2.52644,1.44811 3.78331,2.11217 4.89165,2.58456 15.76695,12.40971 18.93276,17.10457 2.96107,4.39131 3.89468,5.91253 5.58633,9.10262 2.25996,4.26171 3.55644,7.7675 4.39143,11.87483 0.33503,1.6479 0.83646,3.55797 1.11434,4.24461 0.82153,2.02993 1.12646,17.39185 0.43317,21.82313 -0.93835,5.99763 -2.24098,11.07465 -3.62574,14.13107 -2.84288,6.27487 -5.04866,10.46788 -5.92296,11.25911 -0.53507,0.48422 -0.97286,1.0946 -0.97286,1.35642 0,1.81251 -14.97048,16.84694 -16.77527,16.84694 -0.2136,0 -0.85232,0.43395 -1.41933,0.9643 -0.56701,0.53034 -3.22165,2.10217 -5.8992,3.49294 -7.64659,3.97175 -15.74233,5.7845 -25.59292,5.7306 -6.44742,-0.0353 -13.47073,-1.13765 -18.47645,-2.90009 l -1.99747,-0.70324 -0.12845,31.16387 -0.12846,31.16387 -22.48905,0 -22.48906,0 0.18847,-63.29439 z m 37.80605,24.09433 c 0,-18.26426 0.12833,-33.20772 0.28501,-33.20772 0.15673,0 1.56124,0.64951 3.12103,1.44335 4.59868,2.34041 6.09103,2.93792 10.82584,4.33444 6.15563,1.81563 17.25643,2.26842 23.66315,0.96519 4.4396,-0.90308 13.08636,-4.32547 16.3991,-6.49074 11.90985,-7.78454 20.41272,-18.59751 24.54444,-31.21282 2.44854,-7.47611 3.28128,-20.7177 1.77883,-28.2855 -1.32182,-6.65806 -3.12654,-11.93041 -5.3399,-15.60016 -0.89171,-1.47845 -1.95835,-3.28478 -2.37034,-4.01401 -1.60135,-2.83453 -5.29118,-6.97377 -10.15461,-11.39141 -2.7918,-2.5359 -5.28624,-4.6145 -5.54318,-4.61912 -0.25697,-0.005 -0.93483,-0.44775 -1.50643,-0.98473 -2.30105,-2.16171 -11.16287,-6.02165 -17.77624,-7.74283 -5.02798,-1.30854 -15.20026,-1.56731 -21.19213,-0.53907 -2.74325,0.47076 -5.88926,1.1872 -6.99108,1.59206 -1.10184,0.4049 -2.70028,0.94848 -3.55209,1.20797 -2.17765,0.6634 -10.86166,5.13517 -12.69627,6.53785 -5.42966,4.1513 -11.12879,9.88504 -14.57726,14.66578 -2.35838,3.26956 -6.7768,12.32353 -7.14825,14.64785 -0.15973,0.99934 -0.61598,3.27762 -1.01396,5.06285 -1.45736,6.53759 -1.7138,17.2713 -1.71501,71.78357 l -10e-4,55.05489 15.48027,0 15.48027,0 0,-33.20769 z m 18.2268,-56.90316 c -5.63732,-1.38679 -9.81948,-4.57494 -13.8414,-10.55144 -4.71306,-7.00357 -5.47699,-16.89853 -1.8964,-24.56302 1.76545,-3.77908 5.29926,-8.47835 7.86487,-10.45869 3.24762,-2.50679 8.9269,-4.69962 12.96216,-5.00478 7.77342,-0.58791 14.25386,2.03304 20.00382,8.0904 1.99121,2.09768 3.62035,4.06557 3.62035,4.37307 0,0.30754 0.36312,0.96039 0.80692,1.45075 1.32607,1.46532 2.65986,7.32554 2.65632,11.67114 -0.007,8.15058 -2.4876,13.75261 -8.70715,19.66054 -3.92569,3.72903 -4.69046,4.1773 -9.13715,5.35558 -3.17807,0.84213 -10.86481,0.82951 -14.33234,-0.0234 z m 15.21077,-8.80427 c 8.69595,-4.71392 12.38744,-15.77792 8.27361,-24.79734 -1.57868,-3.46117 -6.28569,-8.22683 -9.66408,-9.78451 -3.47252,-1.6011 -10.37587,-1.52799 -13.77876,0.14596 -3.45639,1.70029 -7.3742,5.8119 -9.33702,9.79896 -1.50604,3.05922 -1.65329,3.75886 -1.61145,7.65552 0.0333,3.09659 0.34456,5.06963 1.11991,7.09834 1.94864,5.0989 6.34732,9.2868 11.5348,10.98206 0.68662,0.2244 3.49552,0.34059 6.24203,0.25821 4.15442,-0.1248 5.36797,-0.3527 7.22096,-1.35721 z m -124.32182,-16.93735 0,-61.42178 5.04857,0 5.04859,0 -2.94354,-2.16688 c -4.06914,-2.99555 -6.35854,-5.83577 -8.12582,-10.08105 -4.56636,-10.96888 -0.92873,-23.15738 8.8743,-29.73502 2.0116,-1.34976 4.93288,-2.84685 6.49171,-3.32687 3.87187,-1.19227 10.91825,-1.15129 14.5693,0.0847 10.70385,3.62374 17.76119,14.28693 16.81401,25.40489 -0.6312,7.40916 -4.30383,13.63185 -10.7717,18.251 l -2.19723,1.56919 6.06727,0 6.06731,0 0,61.42177 0,61.42178 -22.47138,0 -22.47139,0 0,-61.42178 z m 37.95168,0.99873 0,-54.43067 -15.48029,0 -15.48029,0 0,54.43067 0,54.43069 15.48029,0 15.48029,0 0,-54.43069 z m -9.61526,-67.36283 c 5.96368,-2.34256 10.614,-9.36617 10.614,-16.03097 0,-2.97242 -1.41965,-7.46758 -3.09522,-9.80077 -2.46011,-3.42567 -7.51603,-6.61811 -11.58504,-7.3151 -7.81178,-1.33808 -15.32475,2.94365 -19.07974,10.87382 -1.14158,2.4109 -1.36902,10.76274 -0.32161,11.81004 0.34331,0.34329 0.6242,0.92587 0.6242,1.29465 0,0.36876 0.89575,1.883 1.99053,3.36495 4.0058,5.42245 8.62266,7.48633 15.47229,6.91654 1.77701,-0.14781 4.19828,-0.64875 5.38059,-1.11316 z M 819.4351,606.62492 c -6.51231,-0.68966 -7.53973,-0.88988 -11.88115,-2.31499 -9.90976,-3.25296 -20.81186,-8.62288 -24.82208,-12.22633 -0.68665,-0.61698 -2.18456,-1.75337 -3.32872,-2.52531 -7.40085,-4.99315 -16.85522,-17.27995 -23.17419,-30.11696 -1.17281,-2.38257 -3.14581,-8.31816 -4.97967,-14.98093 -0.39737,-1.44368 -1.93107,-14.2084 -1.96497,-16.35417 -0.007,-0.47056 1.73794,-0.62421 7.09099,-0.62421 l 7.10088,0 19.11576,19.09196 19.11571,19.09193 0,3.78084 c 0,3.68521 -0.0454,3.82439 -1.79036,5.50173 -2.45342,2.35819 -3.33878,4.24587 -3.37748,7.20092 -0.0451,3.45238 2.01251,7.19908 4.82047,8.77727 2.90648,1.63353 7.31535,1.61153 10.2739,-0.0514 4.6214,-2.59738 6.15949,-8.88367 3.34764,-13.68174 -0.75207,-1.28335 -1.68695,-2.45599 -2.07748,-2.60585 -0.55511,-0.21299 -0.71001,-1.48831 -0.71001,-5.84462 l 0,-5.57217 -21.61088,-21.58973 -21.61087,-21.58976 -9.6456,0 -9.6456,0 0.23692,-2.62165 c 0.13035,-1.44192 0.52806,-4.25084 0.88394,-6.24205 l 0.64703,-3.62039 12.14937,0 12.14935,0 23.71618,22.50096 23.71615,22.50097 0,5.95266 0,5.95266 -1.94851,2.57444 c -3.04128,4.01823 -3.28711,6.6514 -1.0183,10.90814 2.02037,3.79059 4.42625,5.21018 8.76113,5.1694 6.90346,-0.0649 11.1906,-5.55009 9.48302,-12.13294 -0.66141,-2.54981 -3.0194,-5.99943 -4.10091,-5.99943 -0.55704,0 -0.68979,-1.48499 -0.68979,-7.71641 l 0,-7.71643 -26.21404,-24.74224 -26.21405,-24.74225 -13.54781,0 -13.54784,0 0.31443,-1.57202 c 0.17292,-0.86466 1.35745,-3.67357 2.63227,-6.24208 l 2.31791,-4.66998 14.65076,0 14.6508,0 28.22147,25.73467 28.22146,25.73469 0,8.53067 0,8.53066 -1.4708,1.67522 c -0.80897,0.92136 -1.70658,2.52401 -1.99473,3.56148 -0.66441,2.39252 -0.68018,5.47934 -0.0301,5.88116 0.27464,0.16974 0.49934,0.7043 0.49934,1.18796 0,1.03432 2.12191,3.44188 4.24462,4.81603 1.09684,0.71005 2.38934,0.97209 4.82579,0.97843 2.90135,0.008 3.59906,-0.18325 5.44591,-1.48941 3.35035,-2.36947 4.07476,-3.67861 4.33374,-7.83201 0.22326,-3.58111 0.19191,-3.70011 -1.58699,-6.01635 -0.99812,-1.29962 -2.25698,-2.59965 -2.79749,-2.88891 -0.92426,-0.49464 -0.98275,-1.0883 -0.98275,-9.97825 l 0,-9.45235 -30.96717,-28.48177 -30.96715,-28.48176 -14.45811,0 -14.45807,0 1.43615,-2.12796 c 0.78987,-1.17038 3.391,-4.09166 5.78032,-6.49173 l 4.34417,-4.36377 12.6665,0 12.66648,0 32.97077,29.48121 32.97081,29.48123 0,10.88986 c 0,10.50022 -0.0383,10.92391 -1.06924,11.84117 -1.59508,1.41906 -2.90232,4.65385 -2.9147,7.21235 -0.0152,3.11166 1.72066,6.35077 4.40146,8.21382 1.89239,1.31509 2.59509,1.50476 5.57485,1.50476 2.98469,0 3.67341,-0.18668 5.52773,-1.49809 3.09434,-2.18842 4.08952,-3.78425 4.35483,-6.98332 0.29273,-3.53036 -0.85109,-6.66895 -3.17358,-8.70812 l -1.71535,-1.50611 0,-11.98578 0,-11.98577 -35.57693,-31.84869 -35.57696,-31.84866 -10.23969,-0.24971 -10.2397,-0.24966 2.87007,-1.3662 c 1.57853,-0.75139 3.71335,-1.89777 4.74398,-2.54745 2.37391,-1.4965 12.144,-5.08706 15.10698,-5.55191 1.23593,-0.19393 3.37072,-0.66036 4.74395,-1.03655 4.45444,-1.22026 13.74313,-1.90718 20.81058,-1.53897 5.35388,0.27892 8.18557,0.73776 14.48843,2.34769 15.38307,3.92929 25.367,9.58706 36.64355,20.76538 8.96482,8.88678 12.60012,13.79105 16.76785,22.62117 1.10548,2.34219 2.29202,4.8203 2.63684,5.50691 0.73959,1.47293 3.43855,12.23413 4.32044,17.22602 0.33941,1.92144 0.62881,7.65164 0.64302,12.7338 0.023,8.12255 -0.13591,10.0311 -1.31102,15.77816 -0.73532,3.59584 -1.79358,7.60314 -2.35167,8.90511 -0.5581,1.30197 -1.01469,2.68272 -1.01469,3.06834 0,1.06281 -5.16622,11.01898 -7.62589,14.69637 -5.35912,8.01222 -6.54047,9.50168 -10.93237,13.78359 -6.27762,6.12033 -14.16715,11.93213 -19.85068,14.62299 -1.53375,0.72611 -3.3442,1.71018 -4.02327,2.18678 -0.67911,0.47661 -1.57236,0.86656 -1.98509,0.86656 -0.41269,0 -2.21663,0.53308 -4.00864,1.1846 -8.4752,3.08132 -8.82734,3.1641 -17.24042,4.05102 -8.21631,0.86618 -12.80489,0.86648 -20.97331,10e-4 z m 347.0579,0.46152 c -9.4485,-1.35103 -18.0444,-3.26557 -26.3413,-5.86698 l -3.3708,-1.05683 0,-16.36574 c 0,-9.00115 0.1895,-16.36575 0.4212,-16.36575 0.6949,0 5.6232,1.80955 8.7127,3.19915 3.6026,1.62034 8.1118,2.89592 17.0827,4.83251 6.3651,1.37406 7.6394,1.49235 14.2319,1.32091 5.3127,-0.13809 7.9721,-0.43389 9.9872,-1.11065 7.5414,-2.53269 12.4597,-9.66184 11.835,-17.15452 -0.3994,-4.79111 -1.1333,-6.77459 -3.2986,-8.91676 -3.1237,-3.09008 -5.3424,-4.45783 -8.6549,-5.33543 -1.7201,-0.45569 -4.2509,-1.14724 -5.6241,-1.53675 -1.3732,-0.3895 -3.9575,-1.07315 -5.7427,-1.51917 -4.5798,-1.14422 -7.5347,-2.11464 -13.0194,-4.27573 -7.7917,-3.07007 -11.1514,-5.18539 -16.1431,-10.16372 -3.9551,-3.94442 -4.8789,-5.21237 -7.1215,-9.77561 -3.8909,-7.91651 -5.1632,-13.10967 -5.1632,-21.07523 0,-5.4527 0.5604,-10.12101 1.5762,-13.1312 0.2781,-0.82396 0.7941,-2.50929 1.1468,-3.74524 0.6857,-2.40262 2.4507,-6.0234 5.2568,-10.78431 2.5249,-4.2839 11.9903,-13.5594 15.74,-15.42445 1.6478,-0.81962 3.3332,-1.74216 3.7453,-2.05004 1.4258,-1.06558 9.5032,-3.31448 15.0217,-4.18234 4.2713,-0.67168 17.8086,-0.6645 22.7846,0.0122 2.1397,0.29096 7.3173,1.35101 11.5058,2.35567 l 7.6153,1.82666 0,16.1208 c 0,8.86646 -0.057,16.12081 -0.1274,16.12081 -0.3356,0 -6.8738,-2.46661 -7.6858,-2.89961 -0.5093,-0.27162 -4.072,-1.32032 -7.917,-2.33037 -16.9804,-4.46056 -27.9608,-2.25086 -34.0949,6.86103 -1.8878,2.80422 -2.6086,5.48789 -2.6086,9.71305 0,2.79089 0.2588,3.97704 1.2939,5.93442 1.8233,3.44748 2.3129,3.89079 6.8768,6.22623 4.1511,2.12429 6.4652,2.91443 12.4523,4.25197 1.8671,0.41712 6.0244,1.65588 9.2381,2.75281 3.214,1.09691 6.5404,2.17773 7.3923,2.4018 0.8517,0.22407 3.5484,1.37438 5.9923,2.55622 3.7549,1.81575 5.1838,2.8908 9.2179,6.93558 4.3063,4.31791 5.049,5.34926 7.581,10.52946 3.9461,8.07306 4.2385,9.00754 4.9114,15.69567 1.35,13.41658 -1.0919,24.78104 -7.3225,34.07984 -2.694,4.02079 -10.223,11.46631 -13.6358,13.48456 -4.7972,2.83712 -12.0741,5.7012 -17.7811,6.99841 -2.9197,0.66371 -22.7428,1.31776 -25.9668,0.85676 z m 109.8603,-0.001 c -9.3343,-1.32455 -18.0455,-3.26424 -26.3417,-5.86536 l -3.3705,-1.05685 0,-16.3657 c 0,-9.0013 0.1894,-16.36588 0.4211,-16.36588 0.6949,0 5.6233,1.80955 8.7127,3.19915 3.6736,1.65219 8.2258,2.92587 17.3295,4.84858 6.586,1.39094 7.8681,1.50954 14.232,1.31673 8.9333,-0.27066 12.3984,-1.3065 16.0629,-4.80171 1.3793,-1.3155 3.1614,-3.72299 3.9602,-5.34994 1.2956,-2.63897 1.4519,-3.46971 1.4478,-7.70199 0,-5.53 -0.6,-7.00587 -4.1903,-10.40558 -3.4742,-3.28971 -3.5539,-3.32126 -17.2777,-6.84081 -8.8869,-2.27905 -18.4617,-5.8053 -21.972,-8.09183 -1.0986,-0.71562 -2.8963,-1.87249 -3.995,-2.57085 -1.0987,-0.69834 -3.6827,-2.97847 -5.7428,-5.06694 -2.8956,-2.93586 -4.28,-4.86539 -6.1031,-8.5062 -3.0301,-6.05096 -3.7935,-8.25455 -4.658,-13.44786 -1.9062,-11.44842 0.1034,-22.87266 5.8142,-33.05146 2.6455,-4.71488 4.0487,-6.53652 8.4833,-11.01389 2.9223,-2.95059 6.075,-5.7079 7.006,-6.12737 0.9306,-0.41949 3.1308,-1.5527 4.8892,-2.51823 6.2563,-3.43536 15.2334,-5.1908 26.6195,-5.20527 9.3627,-0.0122 13.1701,0.45901 23.2408,2.87466 l 7.6153,1.82668 0,16.17423 c 0,15.2064 -0.053,16.15297 -0.874,15.81911 -0.4804,-0.19531 -1.4486,-0.5284 -2.1513,-0.74016 -0.7027,-0.21179 -2.0386,-0.77854 -2.9685,-1.25947 -0.9299,-0.48092 -5.0741,-1.76611 -9.209,-2.85596 -15.9373,-4.20063 -26.0757,-2.83774 -32.6848,4.39375 -3.4595,3.78527 -4.7666,7.55577 -4.4122,12.72693 0.2271,3.31479 0.527,4.37459 1.7953,6.34324 1.6236,2.52061 2.0607,2.86448 6.9852,5.49561 3.2202,1.72058 5.7294,2.56038 11.5601,3.86884 5.7952,1.30047 17.6112,5.30804 22.4714,7.62152 4.1012,1.95231 5.3533,2.87353 9.2428,6.80136 4.766,4.81314 7.9144,9.05657 9.0158,12.15146 0.368,1.03379 1.1544,3.11554 1.748,4.62611 0.5934,1.51058 1.331,4.20713 1.6389,5.99237 0.7861,4.5574 0.7122,16.46054 -0.1314,21.22296 -0.796,4.49109 -4.3295,13.25937 -6.7097,16.64906 -2.5065,3.56977 -10.8154,11.66938 -13.7495,13.40329 -4.7881,2.82941 -12.0402,5.6864 -17.7833,7.00564 -2.9137,0.66932 -22.6775,1.31467 -25.9668,0.84791 z M 520.67833,538.09351 c 0.13008,-63.39409 0.18453,-66.96768 1.07004,-70.28549 0.51314,-1.92255 1.12003,-3.83263 1.34867,-4.24459 0.22864,-0.41197 0.89259,-1.69651 1.47539,-2.85449 1.279,-2.54112 5.48034,-6.47732 8.51308,-7.97581 7.55491,-3.73288 19.64273,-5.14216 33.92108,-3.95471 4.80635,0.39971 9.36123,0.9647 10.12192,1.25551 0.76065,0.29082 2.8366,0.86587 4.61314,1.27789 3.98025,0.92306 10.56376,4.1804 14.22803,7.03962 3.55125,2.77099 8.36362,7.71466 9.8203,10.08812 1.7026,2.77421 5.16063,10.09705 5.16063,10.92834 0,0.39827 0.34354,1.38848 0.76344,2.20045 1.33874,2.58882 1.9884,11.88435 1.28833,18.43391 -0.64124,5.99919 -0.90559,7.13504 -2.909,12.49884 -3.13136,8.38379 -8.47692,15.33291 -16.37082,21.28182 -4.11414,3.10044 -9.60442,5.70109 -15.23062,7.21447 -2.04125,0.54908 -18.29472,1.93968 -22.84589,1.95466 l -3.12104,0.0108 0,30.96058 0,30.96057 -15.9919,0 -15.9919,0 0.13708,-66.78992 z m 45.59784,-26.27725 c 2.4821,-0.37275 5.29102,-1.06896 6.24206,-1.54708 2.36279,-1.18789 5.76431,-4.87849 7.31285,-7.9344 1.16943,-2.30775 1.26171,-2.92931 1.04559,-7.04356 -0.26546,-5.05307 -1.13388,-7.28228 -4.14257,-10.63377 -3.3861,-3.77193 -9.86627,-5.61375 -19.75093,-5.61375 l -4.45816,0 0,16.7287 0,16.7287 4.61912,-0.004 c 2.54053,-0.001 6.64993,-0.30855 9.13204,-0.68131 z m 65.1597,31.02119 c 0.0122,-59.93488 0.24106,-71.18404 1.58072,-77.27658 1.0141,-4.61184 4.85618,-10.17521 8.47934,-12.2781 7.57085,-4.39415 11.49215,-4.92576 33.62295,-4.55827 l 15.48029,0.25709 5.40642,1.55749 c 5.40885,1.55819 10.21287,3.71123 13.11719,5.87875 0.84987,0.63427 1.70898,1.15324 1.9091,1.15324 1.45991,0 11.01573,10.14162 12.93925,13.7325 3.64668,6.80765 4.77189,11.21308 5.16547,20.22424 0.3586,8.21019 -0.44271,12.53115 -3.5654,19.22551 -2.4516,5.25572 -3.86916,7.36699 -8.17994,12.18277 -2.69596,3.01179 -3.03186,3.58478 -2.24714,3.83301 5.66209,1.79132 11.78735,7.08455 13.37845,11.56126 2.25012,6.33088 2.25944,6.48383 2.2676,37.21545 l 0.008,29.33762 -15.96296,0 -15.96297,0 -0.14143,-26.59112 c -0.13709,-25.77382 -0.17328,-26.65166 -1.17452,-28.56029 -0.56816,-1.08304 -1.62856,-2.41378 -2.35647,-2.95726 -1.80698,-1.34909 -7.81844,-2.25589 -15.16741,-2.2879 -4.98606,-0.0217 -6.5798,-0.2205 -8.90616,-1.11075 -3.551,-1.35889 -5.89607,-4.20918 -6.84009,-8.31373 -0.56047,-2.43694 -0.67039,2.28 -0.78045,33.49232 l -0.12804,36.32873 -15.97638,0 -15.97638,0 0.0122,-62.04598 z m 33.28347,-20.0994 c 0.43312,-1.37323 1.30719,-3.19398 1.94236,-4.04608 1.24015,-1.66365 5.85834,-4.19342 7.65529,-4.19342 0.60282,0 2.49048,-0.3221 4.19481,-0.71582 1.70435,-0.3937 4.50986,-0.98759 6.23445,-1.31976 1.72462,-0.33214 3.2547,-0.79652 3.4002,-1.03193 0.14545,-0.23543 0.68826,-0.42803 1.20614,-0.42803 0.51788,0 2.02143,-1.09755 3.34123,-2.43899 3.42614,-3.48233 4.86739,-7.77078 4.55555,-13.55509 -0.14347,-2.66105 -0.56904,-4.94298 -1.14729,-6.15178 -1.48448,-3.10319 -5.13667,-6.45282 -8.49908,-7.79497 -2.75285,-1.0988 -3.85804,-1.21311 -13.60768,-1.4072 l -10.61149,-0.21124 0.0748,24.39367 c 0.0412,13.41651 0.16442,23.71951 0.27401,22.89555 0.10963,-0.82395 0.55357,-2.62166 0.98669,-3.99491 z m 331.98998,81.59268 c -4.68566,-0.38527 -10.03665,-1.22159 -15.23059,-2.38045 -5.8464,-1.30448 -16.28215,-6.20817 -21.74006,-10.21553 -1.36353,-1.0011 -3.26558,-2.39626 -4.22687,-3.10033 -4.65523,-3.40968 -15.01423,-14.5966 -17.27874,-18.65973 -0.52145,-0.93557 -1.65881,-2.95799 -2.52754,-4.49426 -4.13563,-7.31368 -8.24234,-18.82134 -9.19439,-25.76399 -1.35438,-9.87678 -1.06908,-22.56579 0.65123,-28.96312 0.29538,-1.09859 0.7148,-2.89631 0.93196,-3.9949 0.44124,-2.23192 2.58708,-8.68522 3.6531,-10.98602 0.38178,-0.82395 1.10974,-2.3968 1.61776,-3.49519 0.50798,-1.0984 2.92995,-5.0309 5.38211,-8.73885 4.52869,-6.84797 10.06158,-12.80849 17.90771,-19.29176 4.96332,-4.10117 15.44663,-9.47997 22.5766,-11.58365 11.40556,-3.36518 16.90302,-4.08045 31.3615,-4.08045 l 8.8373,0 0,14.89435 0,14.89436 -10.8612,0.55882 c -12.65061,0.65086 -15.98308,1.12763 -20.1552,2.88365 -5.16133,2.1724 -11.95119,6.2919 -14.95667,9.07441 -3.0175,2.79372 -8.45671,9.18112 -8.45892,9.93355 0,0.24407 -0.74266,1.6797 -1.64872,3.19027 -2.8405,4.7353 -5.48134,13.37218 -6.1076,19.97458 -0.40712,4.29249 0.91484,14.79235 2.23944,17.7868 0.56313,1.27309 1.02392,2.5333 1.02392,2.80047 0,0.844 5.4888,10.02565 7.40325,12.38413 2.10283,2.59054 8.71397,8.97515 9.29358,8.97515 0.21312,0 1.20632,0.63807 2.20714,1.41788 2.75729,2.14851 11.60927,5.40449 17.1121,6.29425 3.07895,0.49786 8.05828,0.77707 13.85738,0.77707 l 9.0515,0 0,15.2306 0,15.23059 -8.8637,-0.0711 c -4.875,-0.039 -11.11087,-0.25583 -13.85738,-0.48164 z m 65.47098,0.0201 c -5.3993,-0.47828 -6.3852,-0.71224 -9.427,-2.23702 -5.4762,-2.74504 -9.0074,-6.84177 -11.3118,-13.1235 -2.5543,-6.96298 -2.6431,-9.33968 -2.4362,-65.25357 l 0.1902,-51.43451 1.3958,-4.49425 c 3.2486,-10.45849 6.7685,-14.16887 16.4837,-17.37502 l 4.5517,-1.50213 27.5898,-0.21747 27.5899,-0.21747 0,15.27386 0,15.27392 -22.9708,0 -22.9707,0 0,14.73123 0,14.73123 21.4726,0 21.4727,0 0,14.73123 0,14.73125 -21.4727,0 -21.4726,0 0,17.97713 0,17.9771 22.9707,0 22.9708,0 0,15.48027 0,15.48028 -25.093,-0.0696 c -13.8012,-0.0381 -27.0911,-0.24661 -29.5331,-0.46295 z"
         style="fill:#000000" />
      <path
         style="fill:#a9a8a8"
         d="m -1488.7603,610.68109 c 1.65,-0.4199 5.6185,-0.8166 8.8188,-0.8817 3.2003,-0.065 10.1753,-1.2078 15.5,-2.5395 5.3247,-1.3316 15.7562,-3.6189 23.1812,-5.0828 63.6805,-12.5551 121.726,-28.3993 170.5,-46.54 7.7,-2.8639 18.275,-6.733 23.5,-8.5981 28.68,-10.2374 102.8289,-52.5533 130.8444,-74.6715 3.4894,-2.7548 9.1144,-6.7895 12.5,-8.9659 3.3856,-2.1764 8.4056,-5.836 11.1556,-8.1325 2.75,-2.2964 7.3522,-5.874 10.2272,-7.9501 2.875,-2.0761 5.125,-4.3065 5,-4.9563 -0.1745,-0.9077 157.71636,-1.2397 681.02281,-1.4323 453.998296,-0.1671 681.25006,0.083 681.25006,0.75 0,0.5504 -0.5625,1.0015 -1.25,1.0025 -1.3543,0 -5.0688,5.5552 -9.0286,13.4982 -3.4217,6.8635 -10.7214,26.4346 -10.7214,28.7449 0,1.0376 -0.4559,2.7385 -1.0131,3.7797 -5.8813,10.9893 -5.8813,64.9615 0,75.9508 0.5572,1.0412 1.0131,2.7421 1.0131,3.7797 0,2.6443 7.5326,22.3549 11.7337,30.7036 1.9259,3.8273 4.8463,8.2148 6.4897,9.75 l 2.9881,2.7913 -888.3558,-0.1183 c -488.59567,-0.065 -887.00577,-0.4619 -885.35577,-0.8817 z m 2038.00007,-169 c -0.3399,-0.55 -0.1415,-1 0.441,-1 0.5824,0 1.059,0.45 1.059,1 0,0.55 -0.1984,1 -0.441,1 -0.2425,0 -0.7191,-0.45 -1.059,-1 z"
         id="path3055"
         inkscape:connector-curvature="0" />
    </g>
    <path
       style="fill:#000000"
       d=""
       id="path3051"
       inkscape:connector-curvature="0" />
    <path
       inkscape:connector-curvature="0"
       id="path3089"
       d="m 6.801431,1446.289 c 0.3502442,-117.6222 0.4224011,-119.9177 4.252149,-135.3256 2.167012,-8.718 2.19422,-8.7892 7.137442,-18.712 9.305151,-18.6785 20.888667,-31.9007 39.094737,-44.6257 4.954995,-3.4631 23.47817,-12.6198 28.207833,-13.9442 17.676798,-4.9493 34.046668,-6.436 48.783488,-4.4303 8.67734,1.181 31.34424,7.9521 35.96751,10.7442 1.47196,0.889 4.5135,2.587 6.7589,3.7735 8.73896,4.6172 28.16773,22.1699 33.82346,30.5572 5.28997,7.8451 6.95787,10.5629 9.98001,16.262 4.03743,7.6136 6.35359,13.8767 7.84531,21.2144 0.59853,2.944 1.49434,6.3564 1.99077,7.583 1.46767,3.6264 2.01243,31.0705 0.77386,38.9871 -1.67637,10.7149 -4.00352,19.785 -6.4774,25.2453 -5.07882,11.2101 -9.01945,18.7009 -10.58139,20.1144 -0.95591,0.865 -1.73802,1.9555 -1.73802,2.4232 0,3.238 -26.74483,30.0972 -29.9691,30.0972 -0.38159,0 -1.52267,0.7752 -2.53564,1.7228 -1.01296,0.9474 -5.75549,3.7554 -10.53894,6.2401 -13.66067,7.0956 -28.12375,10.334 -45.72187,10.2377 -11.51834,-0.062 -24.065518,-2.0323 -33.008259,-5.181 l -3.568489,-1.2563 -0.229476,55.6743 -0.229495,55.6744 -40.176787,0 -40.1768052,0 0.3367025,-113.0757 z m 67.540676,43.0447 c 0,-32.6292 0.229262,-59.3259 0.509171,-59.3259 0.279999,0 2.789163,1.1604 5.575734,2.5787 8.215562,4.1811 10.881653,5.2486 19.340412,7.7434 10.997056,3.2438 30.828686,4.0525 42.274326,1.7243 7.93136,-1.6134 23.37884,-7.7275 29.29706,-11.5956 21.277,-13.9072 36.46742,-33.2245 43.84875,-55.7618 4.37433,-13.3563 5.86202,-37.0123 3.17789,-50.5322 -2.36144,-11.8947 -5.58558,-21.3139 -9.53976,-27.8698 -1.59304,-2.6414 -3.4986,-5.8683 -4.23462,-7.1711 -2.86082,-5.0638 -9.45272,-12.4587 -18.14125,-20.3507 -4.98757,-4.5304 -9.4439,-8.2439 -9.90292,-8.2521 -0.45908,-0.018 -1.67008,-0.8 -2.69124,-1.7593 -4.11084,-3.8619 -19.94252,-10.7576 -31.75734,-13.8326 -8.9825,-2.3376 -27.15533,-2.8 -37.85983,-0.9631 -4.900828,0.8411 -10.521189,2.121 -12.489595,2.8443 -1.968442,0.7234 -4.824062,1.6945 -6.345825,2.1581 -3.890381,1.1852 -19.404403,9.1739 -22.681942,11.6798 -9.700112,7.4163 -19.881633,17.6596 -26.04234,26.2005 -4.213256,5.841 -12.106783,22.016 -12.77038,26.1684 -0.285358,1.7854 -1.100451,5.8556 -1.811444,9.0449 -2.60358,11.6794 -3.061711,30.8552 -3.063873,128.2417 l -0.0018,98.3556 27.655571,0 27.655571,0 0,-59.3255 z m 32.562263,-101.6578 c -10.071101,-2.4775 -17.542549,-8.1731 -24.727727,-18.8501 -8.419902,-12.512 -9.784667,-30.1894 -3.387927,-43.8821 3.153985,-6.7512 9.467152,-15.1465 14.050626,-18.6845 5.801887,-4.4783 15.947948,-8.3959 23.156958,-8.9409 13.88725,-1.0503 25.46458,3.6319 35.73691,14.4535 3.55731,3.7474 6.46777,7.263 6.46777,7.8124 0,0.5495 0.64872,1.7157 1.44157,2.5918 2.36903,2.6178 4.75185,13.0871 4.74553,20.8505 -0.0125,14.5611 -4.44411,24.5691 -15.55537,35.1238 -7.01326,6.6618 -8.37952,7.4627 -16.32356,9.5676 -5.67763,1.5046 -19.41003,1.4821 -25.60478,-0.041 z m 27.1741,-15.7289 c 15.53536,-8.4214 22.13022,-28.1873 14.78084,-44.3005 -2.82031,-6.1835 -11.22941,-14.6972 -17.26492,-17.4801 -6.20367,-2.8603 -18.53653,-2.7297 -24.61581,0.2607 -6.17486,3.0376 -13.174044,10.383 -16.68063,17.506 -2.690548,5.4652 -2.95361,6.7152 -2.878863,13.6765 0.05949,5.5321 0.615558,9.0569 2.000724,12.6814 3.481254,9.1092 11.339519,16.5909 20.606969,19.6194 1.22665,0.4008 6.24476,0.6084 11.15142,0.4612 7.42189,-0.2229 9.5899,-0.6301 12.90027,-2.4246 z m -222.101479,-30.2586 0,-109.7303 9.019293,0 9.019329,0 -5.258648,-3.8712 c -7.269536,-5.3514 -11.35956,-10.4257 -14.516813,-18.0097 -8.157822,-19.596 -1.65918,-41.3708 15.853976,-53.1219 3.593732,-2.4113 8.812612,-5.0858 11.597469,-5.9434 6.917113,-2.13 19.505502,-2.0568 26.028119,0.1519 19.122475,6.4738 31.7304445,25.5236 30.0383033,45.386 -1.1276416,13.2364 -7.6888113,24.3532 -19.2436903,32.6055 l -3.925361,2.8033 10.839205,0 10.8392763,0 0,109.7302 0,109.7303 -40.1452203,0 -40.145238,0 0,-109.7303 z m 67.800845,1.7842 0,-97.2407 -27.655607,0 -27.655606,0 0,97.2407 0,97.2407 27.655606,0 27.655607,0 0,-97.2407 z m -17.177705,-120.3439 c 10.654141,-4.1851 18.961958,-16.7328 18.961958,-28.6395 0,-5.3102 -2.536211,-13.3409 -5.529624,-17.5092 -4.394997,-6.1198 -13.427421,-11.8232 -20.696725,-13.0684 -13.95578,-2.3904 -27.377734,5.2589 -34.08604,19.4262 -2.039438,4.3071 -2.44576,19.2277 -0.574558,21.0987 0.613325,0.6133 1.115136,1.6541 1.115136,2.3128 0,0.6588 1.600262,3.364 3.556091,6.0116 7.156379,9.6871 15.40442,13.3743 27.641315,12.3563 3.174636,-0.264 7.500245,-1.1589 9.612447,-1.9885 z m 838.370509,219.8036 c -11.63427,-1.2321 -13.46976,-1.5898 -21.22573,-4.1358 -17.70383,-5.8113 -37.18048,-15.4048 -44.34475,-21.8423 -1.2267,-1.1023 -3.90273,-3.1324 -5.94677,-4.5114 -13.22166,-8.9204 -30.11193,-30.8708 -41.4008,-53.8042 -2.09523,-4.2565 -5.62,-14.8603 -8.8962,-26.7634 -0.7099,-2.5792 -3.44987,-25.3834 -3.51043,-29.2169 -0.0125,-0.8405 3.10484,-1.1151 12.66809,-1.1151 l 12.68575,0 34.15039,34.1079 34.1503,34.1078 0,6.7544 c 0,6.5836 -0.0811,6.8323 -3.19848,9.829 -4.38305,4.2129 -5.96475,7.5851 -6.03389,12.8644 -0.0806,6.1677 3.59536,12.8612 8.61179,15.6807 5.19244,2.9183 13.06891,2.879 18.35437,-0.091 8.25615,-4.6403 11.00396,-15.8708 5.98058,-24.4426 -1.34358,-2.2926 -3.01375,-4.3877 -3.71143,-4.6553 -0.99171,-0.3805 -1.26844,-2.6588 -1.26844,-10.4416 l 0,-9.9545 -38.60793,-38.5703 -38.60792,-38.5701 -17.2319,0 -17.23191,0 0.42326,-4.6837 c 0.23287,-2.5759 0.94338,-7.5941 1.57916,-11.1513 l 1.15592,-6.4679 21.70491,0 21.70486,0 42.36906,40.1981 42.36901,40.198 0,10.6345 0,10.6344 -3.48102,4.5993 c -5.43326,7.1785 -5.87244,11.8828 -1.8192,19.4874 3.6094,6.7719 7.90752,9.308 15.6518,9.2351 12.33306,-0.1161 19.99206,-9.9152 16.94146,-21.6754 -1.18161,-4.5553 -5.39417,-10.718 -7.3263,-10.718 -0.99515,0 -1.23231,-2.653 -1.23231,-13.7856 l 0,-13.7853 -46.8315,-44.2021 -46.83151,-44.2022 -24.20323,0 -24.20327,0 0.56173,-2.8084 c 0.30892,-1.5448 2.42509,-6.5629 4.70256,-11.1515 l 4.14096,-8.343 26.17364,0 26.17372,0 50.41778,45.9751 50.41777,45.9752 0,15.2401 0,15.24 -2.62759,2.9929 c -1.44523,1.6459 -3.04882,4.5091 -3.5636,6.3625 -1.18697,4.2744 -1.21514,9.7889 -0.0538,10.5068 0.49064,0.3031 0.89207,1.2582 0.89207,2.1223 0,1.8478 3.7908,6.1488 7.58303,8.6038 1.95951,1.2684 4.26857,1.7367 8.6213,1.7479 5.18327,0.018 6.42974,-0.3272 9.72914,-2.6608 5.98542,-4.2331 7.27958,-6.5718 7.74225,-13.9919 0.39885,-6.3976 0.34285,-6.6102 -2.83517,-10.7483 -1.78314,-2.3217 -4.0321,-4.6442 -4.99773,-5.161 -1.65119,-0.8836 -1.75568,-1.9443 -1.75568,-17.8261 l 0,-16.8868 -55.32299,-50.8827 -55.32295,-50.8828 -25.82948,0 -25.8294,0 2.56568,-3.8017 c 1.41111,-2.0908 6.05804,-7.3097 10.32657,-11.5975 l 7.76088,-7.7959 22.62876,0 22.62872,0 58.90243,52.6685 58.9025,52.6683 0,19.4546 c 0,18.7589 -0.0684,19.5158 -1.9102,21.1544 -2.84962,2.5352 -5.18501,8.3142 -5.20713,12.885 -0.0272,5.5589 3.07397,11.3455 7.86323,14.674 3.38076,2.3494 4.63614,2.6881 9.95949,2.6881 5.33216,0 6.56257,-0.3333 9.87532,-2.6762 5.52805,-3.9097 7.30594,-6.7606 7.77992,-12.4758 0.52296,-6.3069 -1.52048,-11.9141 -5.66961,-15.5571 l -3.06449,-2.6907 0,-21.4126 0,-21.4126 -63.55834,-56.8978 -63.5584,-56.8978 -18.29325,-0.4461 -18.29327,-0.4461 5.1274,-2.4407 c 2.82005,-1.3424 6.63391,-3.3903 8.47514,-4.551 4.241,-2.6735 21.69531,-9.0881 26.98868,-9.9185 2.208,-0.3466 6.02181,-1.1798 8.47509,-1.8519 7.95788,-2.1799 24.55217,-3.4072 37.1782,-2.7492 9.56473,0.4982 14.62355,1.3179 25.88364,4.194 27.48192,7.0197 45.31826,17.1274 65.46386,37.0975 16.0157,15.8763 22.51017,24.6378 29.95584,40.4128 1.97495,4.1844 4.09471,8.6115 4.71073,9.8381 1.32128,2.6314 6.14298,21.8563 7.71848,30.7744 0.60636,3.4327 1.12338,13.6698 1.14876,22.7489 0.0411,14.5111 -0.2428,17.9207 -2.34214,28.1879 -1.31365,6.4239 -3.20424,13.5829 -4.20127,15.909 -0.99705,2.326 -1.81275,4.7926 -1.81275,5.4815 0,1.8987 -9.22947,19.6855 -13.62368,26.2552 -9.5741,14.3138 -11.68458,16.9748 -19.53073,24.6245 -11.215,10.9339 -25.30968,21.3167 -35.46333,26.124 -2.74005,1.2972 -5.97443,3.0553 -7.18759,3.9067 -1.21323,0.8515 -2.80903,1.548 -3.54637,1.548 -0.73727,0 -3.96002,0.9524 -7.16145,2.1163 -15.14099,5.5048 -15.77009,5.6527 -30.80009,7.2372 -14.67847,1.5474 -22.87599,1.548 -37.46891,0 z m 620.02046,0.8245 c -16.8798,-2.4136 -32.2364,-5.8339 -47.0588,-10.4814 l -6.022,-1.888 0,-29.2374 c 0,-16.0807 0.3386,-29.2376 0.7525,-29.2376 1.2414,0 10.0459,3.2329 15.5653,5.7154 6.436,2.8947 14.4917,5.1735 30.5183,8.6333 11.3713,2.4546 13.6478,2.666 25.4253,2.3598 9.4912,-0.2467 14.2422,-0.7752 17.8422,-1.9843 13.4728,-4.5245 22.2593,-17.2608 21.1433,-30.6466 -0.7135,-8.5593 -2.0246,-12.1028 -5.893,-15.9297 -5.5805,-5.5205 -9.5442,-7.9641 -15.462,-9.5319 -3.0729,-0.8141 -7.5942,-2.0495 -10.0475,-2.7453 -2.4532,-0.6959 -7.0701,-1.9173 -10.2593,-2.7141 -8.1819,-2.0441 -13.4608,-3.7777 -23.2592,-7.6385 -13.9199,-5.4848 -19.9221,-9.2638 -28.8398,-18.1575 -7.0658,-7.0469 -8.7161,-9.312 -12.7225,-17.4642 -6.9512,-14.143 -9.2241,-23.4205 -9.2241,-37.6511 0,-9.7413 1.0011,-18.0812 2.8159,-23.459 0.4968,-1.4719 1.4186,-4.4828 2.0487,-6.6908 1.225,-4.2922 4.3782,-10.7608 9.3913,-19.2662 4.5108,-7.6532 21.4207,-24.2239 28.1196,-27.5559 2.9438,-1.4642 5.9548,-3.1123 6.691,-3.6623 2.5472,-1.9037 16.9775,-5.9214 26.8363,-7.4719 7.6307,-1.1998 31.8152,-1.1872 40.7048,0.021 3.8226,0.5199 13.0724,2.4138 20.5552,4.2085 l 13.6048,3.2634 0,28.7999 c 0,15.8398 -0.1019,28.7999 -0.2276,28.7999 -0.5996,0 -12.2801,-4.4066 -13.7308,-5.1802 -0.9098,-0.4852 -7.2746,-2.3587 -14.1437,-4.1633 -30.3356,-7.9688 -49.9521,-4.0212 -60.9107,12.2572 -3.3726,5.0099 -4.6603,9.8042 -4.6603,17.3525 0,4.986 0.4624,7.105 2.3116,10.6019 3.2573,6.1589 4.132,6.9509 12.2854,11.1231 7.416,3.7951 11.5501,5.2068 22.2461,7.5962 3.3356,0.7452 10.7626,2.9583 16.5039,4.9179 5.7418,1.9596 11.6845,3.8905 13.2064,4.2908 1.5215,0.4004 6.3392,2.4554 10.7052,4.5667 6.7082,3.2439 9.2609,5.1644 16.4679,12.3905 7.6932,7.7139 9.02,9.5565 13.5435,18.811 7.0497,14.4224 7.5721,16.0919 8.7742,28.0402 2.4118,23.9689 -1.9507,44.2716 -13.0817,60.8839 -4.8128,7.1832 -18.2634,20.4846 -24.3604,24.0902 -8.5702,5.0686 -21.5704,10.1852 -31.766,12.5028 -5.2161,1.1857 -40.6301,2.3541 -46.3898,1.5305 z m 196.2659,-0 c -16.6757,-2.3662 -32.2383,-5.8315 -47.0595,-10.4784 l -6.0214,-1.8881 0,-29.2374 c 0,-16.0809 0.3383,-29.2378 0.7523,-29.2378 1.2414,0 10.046,3.2329 15.5652,5.7154 6.5629,2.9517 14.6955,5.2271 30.9593,8.662 11.7659,2.4849 14.0564,2.6968 25.4255,2.3523 15.9594,-0.4836 22.1498,-2.334 28.6964,-8.5782 2.4642,-2.3502 5.6479,-6.6512 7.0749,-9.5578 2.3146,-4.7144 2.5939,-6.1987 2.5865,-13.7595 0,-9.8794 -1.0719,-12.5161 -7.4859,-18.5897 -6.2067,-5.877 -6.3491,-5.9335 -30.8667,-12.2211 -15.8765,-4.0716 -32.9819,-10.3712 -39.2531,-14.4562 -1.9627,-1.2784 -5.1743,-3.3452 -7.1371,-4.5927 -1.9628,-1.2477 -6.5792,-5.3211 -10.2595,-9.0523 -5.173,-5.2448 -7.6463,-8.6918 -10.9032,-15.1963 -5.4133,-10.81 -6.7771,-14.7467 -8.3216,-24.0246 -3.4054,-20.4526 0.1847,-40.8622 10.3871,-59.0466 4.7262,-8.4232 7.233,-11.6775 15.1555,-19.6764 5.2207,-5.2713 10.853,-10.1972 12.5162,-10.9465 1.6625,-0.7494 5.5932,-2.7739 8.7346,-4.4989 11.1769,-6.1372 27.2145,-9.2734 47.5558,-9.2991 16.7266,-0.021 23.5285,0.82 41.5198,5.1355 l 13.6048,3.2634 0,28.8952 c 0,27.1663 -0.095,28.8575 -1.5614,28.2609 -0.8582,-0.3489 -2.5879,-0.944 -3.8433,-1.3222 -1.2554,-0.3783 -3.642,-1.3909 -5.3032,-2.2501 -1.6613,-0.8591 -9.0649,-3.1551 -16.452,-5.102 -28.472,-7.5046 -46.5843,-5.0698 -58.3915,7.8493 -6.1804,6.7625 -8.5156,13.4985 -7.8824,22.7367 0.4057,5.9219 0.9415,7.8152 3.2073,11.3323 2.9006,4.5031 3.6814,5.1175 12.4791,9.8179 5.7529,3.0739 10.2356,4.5742 20.6522,6.9117 10.3531,2.3233 31.4624,9.4829 40.1452,13.6158 7.3268,3.488 9.5637,5.1337 16.5123,12.1507 8.5145,8.5987 14.1391,16.1797 16.1068,21.7088 0.6574,1.8468 2.0623,5.5658 3.1228,8.2645 1.0601,2.6987 2.3778,7.516 2.9279,10.7053 1.4044,8.1418 1.2723,29.4069 -0.2348,37.915 -1.422,8.0233 -7.7346,23.6879 -11.9869,29.7436 -4.4778,6.3773 -19.3217,20.8473 -24.5635,23.9451 -8.554,5.0547 -21.5099,10.1588 -31.77,12.5155 -5.2053,1.1957 -40.5134,2.3488 -46.3898,1.5148 z M 267.24035,1320.5007 c 0.23239,-113.2539 0.32966,-119.6381 1.91163,-125.5654 0.91673,-3.4346 2.00094,-6.847 2.4094,-7.583 0.40847,-0.736 1.59462,-3.0308 2.6358,-5.0996 2.28493,-4.5397 9.79065,-11.5717 15.20865,-14.2488 13.49688,-6.6688 35.09182,-9.1864 60.60016,-7.0651 8.58657,0.7141 16.72388,1.7235 18.08285,2.243 1.35891,0.5195 5.0676,1.5469 8.2414,2.283 7.11073,1.6491 18.8722,7.4683 25.41844,12.5762 6.34432,4.9504 14.94164,13.7824 17.54401,18.0225 3.0417,4.9563 9.21949,18.0385 9.21949,19.5236 0,0.7116 0.61373,2.4806 1.36389,3.931 2.39166,4.6251 3.55228,21.2316 2.3016,32.9323 -1.14558,10.7176 -1.61784,12.7469 -5.19694,22.3293 -5.59419,14.9777 -15.14405,27.3923 -29.24654,38.0201 -7.34993,5.5388 -17.15834,10.185 -27.20957,12.8887 -3.6467,0.981 -32.6836,3.4653 -40.81429,3.4919 l -5.57575,0.02 0,55.3113 0,55.3112 -28.5696,0 -28.5696,0 0.2449,-119.3204 z m 81.46074,-46.9446 c 4.43428,-0.6658 9.45243,-1.9096 11.15147,-2.7637 4.22113,-2.1222 10.29796,-8.7154 13.06444,-14.1748 2.08919,-4.1229 2.25405,-5.2332 1.86795,-12.5834 -0.47425,-9.0274 -2.02568,-13.0099 -7.40072,-18.9974 -6.04928,-6.7385 -17.62614,-10.0289 -35.28512,-10.0289 l -7.96453,0 0,29.8859 0,29.8859 8.25208,0 c 4.53867,-0 11.88013,-0.5513 16.31443,-1.2171 z m 116.40809,55.4196 c 0.0218,-107.0738 0.43066,-127.1706 2.82397,-138.0549 1.81169,-8.2391 8.67558,-18.1782 15.14838,-21.9348 13.52535,-7.8503 20.53077,-8.8 60.06755,-8.1435 l 27.6556,0.4594 9.6586,2.7824 c 9.66293,2.7838 18.24533,6.6301 23.43391,10.5024 1.5183,1.1331 3.0531,2.0603 3.41062,2.0603 2.60813,0 19.67965,18.118 23.11603,24.5332 6.51481,12.1618 8.525,20.0321 9.22813,36.1306 0.64064,14.6676 -0.7909,22.3869 -6.3696,34.3465 -4.3798,9.3893 -6.91227,13.1611 -14.6135,21.7646 -4.81635,5.3806 -5.41643,6.4043 -4.01453,6.8477 10.11535,3.2001 21.05816,12.6565 23.90066,20.6541 4.01985,11.3102 4.0365,11.5835 4.05108,66.4857 l 0.0143,52.4117 -28.5179,0 -28.51791,0 -0.25267,-47.5051 c -0.24491,-46.045 -0.30956,-47.6134 -2.09828,-51.0231 -1.01502,-1.9348 -2.90943,-4.3123 -4.20985,-5.2832 -3.22817,-2.41 -13.96767,-4.03 -27.09664,-4.0874 -8.90762,-0.039 -11.75484,-0.3939 -15.9109,-1.9843 -6.34387,-2.4276 -10.53335,-7.5197 -12.21985,-14.8524 -1.00128,-4.3537 -1.19765,4.0732 -1.39427,59.8341 l -0.22875,64.9014 -28.54187,0 -28.54188,0 0.0218,-110.8454 z m 59.46107,-35.9077 c 0.77377,-2.4532 2.3353,-5.7059 3.47004,-7.2282 2.21553,-2.9722 10.46595,-7.4917 13.67621,-7.4917 1.07694,0 4.44925,-0.5754 7.49404,-1.2788 3.04483,-0.7033 8.05689,-1.7643 11.13787,-2.3576 3.08105,-0.5935 5.81454,-1.4232 6.07448,-1.8437 0.25984,-0.4206 1.22958,-0.7646 2.15477,-0.7646 0.9252,0 3.61129,-1.9609 5.96912,-4.3573 6.12082,-6.2212 8.69562,-13.8826 8.13851,-24.2163 -0.25631,-4.7539 -1.01659,-8.8307 -2.04964,-10.9902 -2.65203,-5.5439 -9.17668,-11.5279 -15.18364,-13.9256 -4.91798,-1.963 -6.8924,-2.1672 -24.31018,-2.514 l -18.95747,-0.3775 0.13363,43.5795 c 0.0736,23.9686 0.29373,42.375 0.48952,40.9029 0.19585,-1.4719 0.98895,-4.6835 1.76272,-7.1369 z m 593.10155,145.7657 c -8.3709,-0.6883 -17.9305,-2.1824 -27.2095,-4.2526 -10.4446,-2.3305 -29.0881,-11.091 -38.8387,-18.2502 -2.436,-1.7885 -5.834,-4.2808 -7.5513,-5.5387 -8.3166,-6.0914 -26.823,-26.0769 -30.8686,-33.3356 -0.9315,-1.6715 -2.9634,-5.2845 -4.5154,-8.0291 -7.3884,-13.066 -14.72501,-33.6244 -16.42586,-46.0275 -2.4196,-17.645 -1.90991,-40.3139 1.16343,-51.7427 0.5277,-1.9627 1.27699,-5.1743 1.66495,-7.1369 0.78828,-3.9873 4.62183,-15.5162 6.52628,-19.6266 0.6821,-1.4721 1.9826,-4.2819 2.8901,-6.2442 0.9075,-1.9623 5.2344,-8.9877 9.6152,-15.612 8.0905,-12.2339 17.9751,-22.8823 31.9922,-34.4648 8.867,-7.3268 27.5955,-16.936 40.3332,-20.6943 20.3761,-6.0118 30.1973,-7.2896 56.0275,-7.2896 l 15.7878,0 0,26.6087 0,26.6089 -19.4036,0.9983 c -22.6003,1.1628 -28.5538,2.0145 -36.0073,5.1517 -9.2207,3.881 -21.3509,11.2406 -26.7202,16.2115 -5.3907,4.991 -15.1079,16.4021 -15.1119,17.7462 0,0.4361 -1.3267,3.0008 -2.9454,5.6995 -5.0746,8.4597 -9.7924,23.8895 -10.9113,35.6847 -0.7273,7.6686 1.6344,26.4265 4.0008,31.7762 1.006,2.2744 1.8292,4.5258 1.8292,5.003 0,1.5078 9.8058,17.9109 13.226,22.1244 3.7567,4.6279 15.5675,16.034 16.603,16.034 0.3807,0 2.1551,1.14 3.9431,2.5331 4.9259,3.8383 20.74,9.6552 30.5708,11.2448 5.5006,0.8893 14.3962,1.3881 24.7563,1.3881 l 16.1705,0 0,27.2096 0,27.2095 -15.835,-0.1268 c -8.7092,-0.07 -19.8496,-0.457 -24.7563,-0.8604 z m 116.9642,0.036 c -9.6459,-0.8544 -11.4072,-1.2723 -16.8414,-3.9964 -9.7832,-4.9039 -16.0917,-12.2229 -20.2085,-23.4452 -4.5633,-12.4394 -4.722,-16.6854 -4.3523,-116.5758 l 0.3398,-91.888 2.4936,-8.0289 c 5.8036,-18.6841 12.0919,-25.3128 29.4482,-31.0407 l 8.1316,-2.6835 49.2893,-0.3885 49.2895,-0.3884 0,27.2867 0,27.287 -41.0374,0 -41.0373,0 0,26.3174 0,26.3174 38.3609,0 38.3611,0 0,26.3173 0,26.3175 -38.3611,0 -38.3609,0 0,32.1162 0,32.1162 41.0373,0 41.0374,0 0,27.6556 0,27.6556 -44.8288,-0.125 c -24.6559,-0.068 -48.3983,-0.4406 -52.761,-0.8272 z"
       style="fill:#000000"
       inkscape:export-filename="/home/joaocarlos/academic/uefs/TEC495-TCC/workspace/documentacao/modelos/template_ipPROCESS_LaTeX/figuras/ipprocess.png"
       inkscape:export-xdpi="90"
       inkscape:export-ydpi="90" />
    <text
       xml:space="preserve"
       style="font-size:95.73096466px;font-style:normal;font-weight:normal;line-height:125%;letter-spacing:0px;word-spacing:0px;fill:#000000;fill-opacity:1;stroke:none;font-family:Sans"
       x="-95.227043"
       y="1660.4419"
       id="text3095"
       sodipodi:linespacing="125%"><tspan
         sodipodi:role="line"
         id="tspan3097"
         x="-95.227043"
         y="1660.4419"
         style="font-style:normal;font-variant:normal;font-weight:normal;font-stretch:normal;font-family:Trebuchet MS;-inkscape-font-specification:Trebuchet MS">Universidade Estadual de Feira de Santana</tspan></text>
  </g>
</svg>
